<svg id="Layer_1"	data-name="Layer 1"	xmlns="http://www.w3.org/2000/svg"	viewBox="0 0 128 145"><defs><style>.cls-1{fill:#000f9f;}.cls-2,.cls-9{fill:none;stroke:#fff;stroke-miterlimit:10;stroke-width:3.61px;}.cls-3,.cls-7{font-size:13px;fill:#fff;font-family:HelveticaNeue-Medium, Helvetica Neue,sans-serif;font-weight:500;}.cls-4,.cls-7{letter-spacing:0.01em;}.cls-5{letter-spacing:0.01em;}.cls-6{letter-spacing:0.01em;}.cls-8{letter-spacing:0em;}.cls-9{stroke-linecap:square;}</style></defs><rect class="cls-1"	x="-277"	y="-6"	width="819"	height="322"/><circle class="cls-2"	cx="64.12"	cy="53.27"	r="50.99"/><text class="cls-3"	transform="translate(36.41 122.45)"><tspan class="cls-4">Economia</tspan></text><path class="cls-9"	d="M34.78,38.6c0-8.11,13.14-14.68,29.34-14.68S93.47,30.49,93.47,38.6,80.33,53.27,64.12,53.27,34.78,46.7,34.78,38.6Zm0,14.67s7.33,7.34,29.34,7.34,29.35-7.34,29.35-7.34M34.78,60.61s7.33,7.33,29.34,7.33,29.35-7.33,29.35-7.33M34.78,67.94s7.33,7.34,29.34,7.34,29.35-7.34,29.35-7.34M34.78,75.28s7.33,7.34,29.34,7.34,29.35-7.34,29.35-7.34"/></svg>