<svg id="Layer_1"	data-name="Layer 1"	xmlns="http://www.w3.org/2000/svg"	viewBox="0 0 128 145"><defs><style>.cls-1{fill:#000f9f;}.cls-2,.cls-8{fill:none;stroke:#fff;stroke-miterlimit:10;stroke-width:3.61px;}.cls-3{font-size:13px;fill:#fff;font-family:HelveticaNeue-Medium, Helvetica Neue,sans-serif;font-weight:500;letter-spacing:0.01em;}.cls-4{letter-spacing:0.01em;}.cls-5{letter-spacing:0.01em;}.cls-6{letter-spacing:0.01em;}.cls-7{letter-spacing:0em;}.cls-8{stroke-linecap:square;}</style></defs><rect class="cls-1"	x="-548"	y="-164"	width="819"	height="322"/><circle class="cls-2"	cx="64.26"	cy="53.22"	r="50.99"/><text class="cls-3"	transform="translate(33 123.5)"><tspan class="cls-4">Sociedade</tspan></text><path class="cls-8"	d="M34.91,75.23h7.34s7.34,0,7.34,7.34V31.21s0-7.34-7.34-7.34H34.91"/><path class="cls-2"	d="M49.59,31.21s0-7.34,7.33-7.34H93.61V75.23H56.92s-7.33,0-7.33,7.34"/><path class="cls-8"	d="M56.92,31.21H86.27M56.92,60.56h7.34M56.92,67.9h7.34m7.34-7.34H86.27M71.6,67.9H86.27"/><rect class="cls-2"	x="56.92"	y="38.55"	width="29.35"	height="14.67"/><path class="cls-8"	d="M42.25,31.21H34.91m7.34,7.34H34.91m7.34,7.33H34.91m7.34,7.34H34.91m7.34,7.34H34.91m7.34,7.34H34.91"/></svg>