<svg id="Layer_1"	data-name="Layer 1"	xmlns="http://www.w3.org/2000/svg"	viewBox="0 0 128 145"><defs><style>.cls-1{fill:#000f9f;}.cls-2{fill:none;stroke:#fff;stroke-miterlimit:10;stroke-width:3.61px;}.cls-3,.cls-5{font-size:13px;fill:#fff;font-family:HelveticaNeue-Medium, Helvetica Neue,sans-serif;font-weight:500;letter-spacing:0.01em;}.cls-3,.cls-5,.cls-6{fill:#fff;}.cls-4{letter-spacing:0.01em;}.cls-5{letter-spacing:0.01em;}</style></defs><rect class="cls-1"	x="-833"	y="-6"	width="981"	height="322"/><circle class="cls-2"	cx="63.83"	cy="53.27"	r="50.99"/><text class="cls-3"	transform="translate(23.5 122.45)"><tspan class="cls-4">Informação de</tspan></text><text class="cls-5"	transform="translate(47.42 137.66)">Base</text><polygon class="cls-2"	points="93.68 23.87 71.63 38.57 56.93 23.87 34.88 38.57 34.88 82.67 56.93 67.97 71.63 82.67 93.68 67.97 93.68 23.87"/><path class="cls-2"	d="M56.93,23.87V68m14.7-29.4v44.1"/><polygon class="cls-6"	points="76.81 55.95 71.83 59.33 66.44 53.94 64.14 56.26 71.43 63.55 78.51 58.75 76.81 55.95"/><polygon class="cls-6"	points="44.62 56.91 49.23 53.83 47.54 51.04 42.93 54.11 44.62 56.91"/><polygon class="cls-6"	points="40.2 55.93 33.98 60.08 35.79 62.8 41.9 58.72 40.2 55.93"/><polygon class="cls-6"	points="64.13 51.63 57.14 44.64 50.26 49.22 51.95 52.02 56.72 48.84 61.84 53.95 64.13 51.63"/><path class="cls-2"	d="M77.63,52.92l10.2,2M83.71,48.8,81.75,59"/></svg>