<svg id="Layer_1"	data-name="Layer 1"	xmlns="http://www.w3.org/2000/svg"	viewBox="0 0 128 145"><defs><style>.cls-1{fill:none;stroke:#000f9f;stroke-miterlimit:10;stroke-width:3.61px;}.cls-2{font-size:13px;font-family:HelveticaNeue-Medium, Helvetica Neue,sans-serif;font-weight:500;}.cls-2,.cls-7{fill:#000f9f;}.cls-3{letter-spacing:0.01em;}.cls-4{letter-spacing:0.01em;}.cls-5{letter-spacing:0.01em;}.cls-6{letter-spacing:0.01em;}</style></defs><circle class="cls-1"	cx="64.99"	cy="53.27"	r="50.99"/><text class="cls-2"	transform="translate(24.08 122.45)"><tspan class="cls-3">Administração</tspan></text><rect class="cls-7"	x="85.21"	y="61.03"	width="3.44"	height="7.31"/><rect class="cls-7"	x="77.9"	y="61.03"	width="3.44"	height="7.31"/><rect class="cls-7"	x="70.58"	y="61.03"	width="3.44"	height="7.31"/><rect class="cls-7"	x="63.27"	y="61.03"	width="3.44"	height="7.31"/><rect class="cls-7"	x="63.1"	y="37.84"	width="3.44"	height="7.31"/><rect class="cls-7"	x="55.95"	y="61.03"	width="3.44"	height="7.31"/><rect class="cls-7"	x="48.64"	y="61.03"	width="3.44"	height="7.31"/><rect class="cls-7"	x="41.32"	y="61.03"	width="3.44"	height="7.31"/><rect class="cls-7"	x="85.21"	y="70.99"	width="3.44"	height="9.21"/><rect class="cls-7"	x="77.9"	y="70.99"	width="3.44"	height="9.21"/><rect class="cls-7"	x="70.58"	y="70.99"	width="3.44"	height="9.21"/><rect class="cls-7"	x="63.27"	y="70.99"	width="3.44"	height="9.21"/><rect class="cls-7"	x="55.95"	y="70.99"	width="3.44"	height="9.21"/><rect class="cls-7"	x="48.64"	y="70.99"	width="3.44"	height="9.21"/><rect class="cls-7"	x="41.32"	y="70.99"	width="3.44"	height="9.21"/><polyline class="cls-1"	points="95.97 80.2 95.97 54.87 95.97 54.82 74.02 54.82 74.02 33.88 64.99 24.85 55.95 33.88 55.95 54.82 34.01 54.82 34.01 80"/></svg>