<svg id="Layer_1"	data-name="Layer 1"	xmlns="http://www.w3.org/2000/svg"	viewBox="0 0 128 145"><defs><style>.cls-1,.cls-6{fill:none;stroke:#000f9f;stroke-miterlimit:10;stroke-width:3.61px;}.cls-2{font-size:13px;fill:#000f9f;font-family:HelveticaNeue-Medium, Helvetica Neue,sans-serif;font-weight:500;}.cls-3{letter-spacing:0.01em;}.cls-4{letter-spacing:0.01em;}.cls-5{letter-spacing:0.01em;}.cls-6{stroke-linecap:square;}</style></defs><circle class="cls-1"	cx="64.26"	cy="53.27"	r="50.99"/><text class="cls-2"	transform="translate(36.68 122.45)"><tspan class="cls-3">Desporto</tspan></text><path class="cls-6"	d="M64.26,23.92A29.35,29.35,0,1,0,93.61,53.27,29.35,29.35,0,0,0,64.26,23.92ZM78.94,68s7.33-7.34,7.33-14.68S78.94,38.6,78.94,38.6H49.59s-7.34,7.33-7.34,14.67S49.59,68,49.59,68Z"/><line class="cls-1"	x1="78.94"	y1="67.95"	x2="78.94"	y2="78.14"/><path class="cls-6"	d="M78.94,38.6V28.81M49.59,38.6V28.54m0,39.41v9.51"/><path class="cls-1"	d="M64.26,38.6V23.92m0,44V82.62"/><path class="cls-6"	d="M46.33,47.56H82.74M83.42,59H45.51"/></svg>