<svg id="Layer_1"	data-name="Layer 1"	xmlns="http://www.w3.org/2000/svg"	viewBox="0 0 128 145"><defs><style>.cls-1{fill:#000f9f;}.cls-2{fill:none;stroke:#fff;stroke-miterlimit:10;stroke-width:3.61px;}.cls-3{font-size:13px;font-family:HelveticaNeue-Medium, Helvetica Neue,sans-serif;font-weight:500;}.cls-3,.cls-8{fill:#fff;}.cls-4{letter-spacing:0.01em;}.cls-5{letter-spacing:0.01em;}.cls-6{letter-spacing:0.01em;}.cls-7{letter-spacing:0.01em;}</style></defs><rect class="cls-1"	x="-5"	y="-6"	width="819"	height="322"/><circle class="cls-2"	cx="64.99"	cy="53.27"	r="50.99"/><text class="cls-3"	transform="translate(25.00 122.45)"><tspan class="cls-4">Administração</tspan></text><text class="cls-3"	transform="translate(13.00 137.66)"><tspan class="cls-4">Pública e Serviços</tspan></text><rect class="cls-8"	x="85.21"	y="61.03"	width="3.44"	height="7.31"/><rect class="cls-8"	x="77.9"	y="61.03"	width="3.44"	height="7.31"/><rect class="cls-8"	x="70.58"	y="61.03"	width="3.44"	height="7.31"/><rect class="cls-8"	x="63.27"	y="61.03"	width="3.44"	height="7.31"/><rect class="cls-8"	x="63.1"	y="37.84"	width="3.44"	height="7.31"/><rect class="cls-8"	x="55.95"	y="61.03"	width="3.44"	height="7.31"/><rect class="cls-8"	x="48.64"	y="61.03"	width="3.44"	height="7.31"/><rect class="cls-8"	x="41.32"	y="61.03"	width="3.44"	height="7.31"/><rect class="cls-8"	x="85.21"	y="70.99"	width="3.44"	height="9.21"/><rect class="cls-8"	x="77.9"	y="70.99"	width="3.44"	height="9.21"/><rect class="cls-8"	x="70.58"	y="70.99"	width="3.44"	height="9.21"/><rect class="cls-8"	x="63.27"	y="70.99"	width="3.44"	height="9.21"/><rect class="cls-8"	x="55.95"	y="70.99"	width="3.44"	height="9.21"/><rect class="cls-8"	x="48.64"	y="70.99"	width="3.44"	height="9.21"/><rect class="cls-8"	x="41.32"	y="70.99"	width="3.44"	height="9.21"/><polyline class="cls-2"	points="95.97 80.2 95.97 54.87 95.97 54.82 74.02 54.82 74.02 33.88 64.99 24.85 55.95 33.88 55.95 54.82 34.01 54.82 34.01 80"/></svg>