<svg id="Layer_1"	data-name="Layer 1"	xmlns="http://www.w3.org/2000/svg"	viewBox="0 0 128 145"><defs><style>.cls-1{fill:#000f9f;}.cls-10,.cls-2{fill:none;stroke:#fff;stroke-miterlimit:10;stroke-width:3.61px;}.cls-3,.cls-7{font-size:13px;fill:#fff;font-family:HelveticaNeue-Medium, Helvetica Neue,sans-serif;font-weight:500;}.cls-4,.cls-7{letter-spacing:0.01em;}.cls-5{letter-spacing:0.01em;}.cls-6{letter-spacing:0.01em;}.cls-8{letter-spacing:0.01em;}.cls-9{letter-spacing:0em;}.cls-10{stroke-linecap:square;}</style></defs><rect class="cls-1"	x="-412"	y="-164"	width="819"	height="322"/><circle class="cls-2"	cx="64.69"	cy="53.22"	r="50.99"/><text class="cls-3"	transform="translate(25 123.5)"><tspan class="cls-4">Saúde e Ação</tspan></text><text class="cls-7"	transform="translate(48 138.71)"><tspan class="cls-5">Social</tspan></text><path class="cls-10"	d="M81.21,31.11h0a21.71,21.71,0,0,0-6,.78,16.29,16.29,0,0,0-4.1,1.79,15.53,15.53,0,0,0-4.85,4.67,18.16,18.16,0,0,0-1.61,2.94,18.67,18.67,0,0,0-1.67-3,16.6,16.6,0,0,0-2.36-2.74,15.7,15.7,0,0,0-5.17-3.17,20.65,20.65,0,0,0-7.3-1.23h0a21.61,21.61,0,0,0-6,.78,16.37,16.37,0,0,0-4.11,1.79,15.75,15.75,0,0,0-4.85,4.67,19.31,19.31,0,0,0-2,3.91,23.34,23.34,0,0,0-1.26,5,17.2,17.2,0,0,0-.18,2.22v.76l.54.54h0L64.69,85.08,99.55,50.22v-.76a18.6,18.6,0,0,0-.28-2.88,23.45,23.45,0,0,0-1.22-4.5,18.58,18.58,0,0,0-2-3.83,16.52,16.52,0,0,0-2.35-2.74,15.65,15.65,0,0,0-5.18-3.17,20.61,20.61,0,0,0-7.3-1.23"/></svg>