<svg id="Layer_1"	data-name="Layer 1"	xmlns="http://www.w3.org/2000/svg"	viewBox="0 0 128 145"><defs><style>.cls-1,.cls-8{fill:none;stroke:#000f9f;stroke-miterlimit:10;stroke-width:3.61px;}.cls-2,.cls-6{font-size:13px;fill:#000f9f;font-family:HelveticaNeue-Medium, Helvetica Neue,sans-serif;font-weight:500;}.cls-3,.cls-6{letter-spacing:0.01em;}.cls-4{letter-spacing:0.01em;}.cls-5{letter-spacing:0.01em;}.cls-7{letter-spacing:0em;}.cls-8{stroke-linecap:square;}</style></defs><circle class="cls-1"	cx="64.12"	cy="53.27"	r="50.99"/><text class="cls-2"	transform="translate(36.41 122.45)"><tspan class="cls-3">Actividade </tspan></text><text class="cls-6"	transform="translate(34.71 137.66)"><tspan class="cls-4">Económica</tspan></text><path class="cls-8"	d="M34.78,38.6c0-8.11,13.14-14.68,29.34-14.68S93.47,30.49,93.47,38.6,80.33,53.27,64.12,53.27,34.78,46.7,34.78,38.6Zm0,14.67s7.33,7.34,29.34,7.34,29.35-7.34,29.35-7.34M34.78,60.61s7.33,7.33,29.34,7.33,29.35-7.33,29.35-7.33M34.78,67.94s7.33,7.34,29.34,7.34,29.35-7.34,29.35-7.34M34.78,75.28s7.33,7.34,29.34,7.34,29.35-7.34,29.35-7.34"/></svg>